<svg width="16" height="16" viewBox="0 0 16 16" fill="none" xmlns="http://www.w3.org/2000/svg">
<g clip-path="url(#clip0_432_11316)">
<mask id="mask0_432_11316" style="mask-type:luminance" maskUnits="userSpaceOnUse" x="0" y="0" width="16" height="16">
<path d="M8.00005 14.6663C8.87568 14.6674 9.7429 14.4955 10.5519 14.1604C11.3609 13.8253 12.0957 13.3336 12.714 12.7137C13.334 12.0953 13.8256 11.3605 14.1607 10.5515C14.4958 9.74254 14.6678 8.87532 14.6667 7.99968C14.6678 7.12404 14.4958 6.25682 14.1607 5.44784C13.8256 4.63886 13.334 3.90407 12.714 3.28568C12.0957 2.66573 11.3609 2.17409 10.5519 1.83898C9.7429 1.50388 8.87568 1.33193 8.00005 1.33301C7.12441 1.33193 6.25719 1.50388 5.44821 1.83898C4.63923 2.17409 3.90444 2.66573 3.28605 3.28568C2.6661 3.90407 2.17445 4.63886 1.83935 5.44784C1.50425 6.25682 1.3323 7.12404 1.33338 7.99968C1.3323 8.87532 1.50425 9.74254 1.83935 10.5515C2.17445 11.3605 2.6661 12.0953 3.28605 12.7137C3.90444 13.3336 4.63923 13.8253 5.44821 14.1604C6.25719 14.4955 7.12441 14.6674 8.00005 14.6663Z" fill="white" stroke="white" stroke-width="2" stroke-linejoin="round"/>
<path d="M5.33337 8L7.33337 10L11.3334 6" stroke="black" stroke-width="2" stroke-linecap="round" stroke-linejoin="round"/>
</mask>
<g mask="url(#mask0_432_11316)">
<path d="M0 0H16V16H0V0Z" fill="#4A83FF"/>
</g>
</g>
<defs>
<clipPath id="clip0_432_11316">
<rect width="16" height="16" fill="white"/>
</clipPath>
</defs>
</svg>
