<svg width="28" height="28" viewBox="0 0 28 28" fill="none" xmlns="http://www.w3.org/2000/svg">
<rect width="28" height="28" rx="4" fill="#E4ECFF"/>
<path d="M15.889 18.7366L12.5363 20.9183C11.3769 21.6728 10.1227 21.9071 8.77379 21.6212C7.4249 21.3353 6.37311 20.613 5.61843 19.4545C4.86374 18.296 4.62945 17.0418 4.91554 15.692C5.20163 14.3422 5.92385 13.2904 7.08219 12.5366L10.4349 10.3549L11.5257 12.0313L8.17302 14.2129C7.47455 14.6674 7.03993 15.2982 6.86915 16.1053C6.69838 16.9124 6.84025 17.6652 7.29476 18.3637C7.74927 19.0622 8.38007 19.4968 9.18716 19.6675C9.99425 19.8383 10.747 19.6965 11.4455 19.2419L14.7982 17.0603L15.889 18.7366ZM11.1928 17.0202L10.102 15.3439L16.8074 10.9805L17.8982 12.6569L11.1928 17.0202ZM17.5653 17.6458L16.4745 15.9695L19.8272 13.7878C20.5256 13.3333 20.9603 12.7025 21.131 11.8954C21.3018 11.0883 21.1599 10.3355 20.7054 9.63706C20.2509 8.93859 19.6201 8.50396 18.813 8.33319C18.0059 8.16242 17.2532 8.30429 16.5547 8.7588L13.202 10.9405L12.1112 9.26412L15.4639 7.08247C16.6233 6.32798 17.8778 6.0935 19.2272 6.37903C20.5767 6.66456 21.6282 7.38696 22.3818 8.54623C23.1353 9.7055 23.3698 10.96 23.0852 12.3096C22.8006 13.6593 22.0782 14.7108 20.918 15.4641L17.5653 17.6458Z" fill="#4A83FF"/>
</svg>
