<svg width="16" height="16" viewBox="0 0 16 16" fill="none" xmlns="http://www.w3.org/2000/svg">
<path d="M8.50004 11.333C8.68893 11.333 8.84737 11.269 8.97538 11.141C9.10337 11.013 9.16715 10.8548 9.16671 10.6663C9.16626 10.4779 9.10226 10.3197 8.97471 10.1917C8.84715 10.0637 8.68893 9.99967 8.50004 9.99967C8.31115 9.99967 8.15293 10.0637 8.02537 10.1917C7.89782 10.3197 7.83382 10.4779 7.83337 10.6663C7.83293 10.8548 7.89693 11.0132 8.02537 11.1417C8.15382 11.2701 8.31204 11.3339 8.50004 11.333ZM7.83337 8.66634H9.16671V4.66634H7.83337V8.66634ZM8.50004 14.6663C7.57782 14.6663 6.71115 14.4912 5.90004 14.141C5.08893 13.7908 4.38337 13.3159 3.78338 12.7163C3.18338 12.1168 2.70849 11.4112 2.35871 10.5997C2.00893 9.78812 1.83382 8.92145 1.83337 7.99967C1.83293 7.0779 2.00804 6.21123 2.35871 5.39967C2.70937 4.58812 3.18426 3.88256 3.78338 3.28301C4.38249 2.68345 5.08804 2.20856 5.90004 1.85834C6.71204 1.50812 7.57871 1.33301 8.50004 1.33301C9.42137 1.33301 10.288 1.50812 11.1 1.85834C11.912 2.20856 12.6176 2.68345 13.2167 3.28301C13.8158 3.88256 14.2909 4.58812 14.642 5.39967C14.9932 6.21123 15.168 7.0779 15.1667 7.99967C15.1654 8.92145 14.9903 9.78812 14.6414 10.5997C14.2925 11.4112 13.8176 12.1168 13.2167 12.7163C12.6158 13.3159 11.9103 13.791 11.1 14.1417C10.2898 14.4923 9.42315 14.6672 8.50004 14.6663Z" fill="#FF4545"/>
</svg>
