<svg width="56" height="56" viewBox="0 0 56 56" fill="none" xmlns="http://www.w3.org/2000/svg">
<rect width="56" height="56" fill="#1E1E1E"/>
<g id="&#234;&#180;&#128;&#235;&#166;&#172;&#236;&#158;&#144; &#234;&#182;&#140;&#237;&#149;&#156;">
<path d="M-1573 -1803C-1573 -1804.1 -1572.1 -1805 -1571 -1805H9830C9831.1 -1805 9832 -1804.1 9832 -1803V45000C9832 45001.1 9831.1 45002 9830 45002H-1571C-1572.1 45002 -1573 45001.1 -1573 45000V-1803Z" fill="#292929"/>
<path d="M-1571 -1805V-1804H9830V-1805V-1806H-1571V-1805ZM9832 -1803H9831V45000H9832H9833V-1803H9832ZM9830 45002V45001H-1571V45002V45003H9830V45002ZM-1573 45000H-1572V-1803H-1573H-1574V45000H-1573ZM-1571 45002V45001C-1571.55 45001 -1572 45000.6 -1572 45000H-1573H-1574C-1574 45001.7 -1572.66 45003 -1571 45003V45002ZM9832 45000H9831C9831 45000.6 9830.55 45001 9830 45001V45002V45003C9831.66 45003 9833 45001.7 9833 45000H9832ZM9830 -1805V-1804C9830.55 -1804 9831 -1803.55 9831 -1803H9832H9833C9833 -1804.66 9831.66 -1806 9830 -1806V-1805ZM-1571 -1805V-1806C-1572.66 -1806 -1574 -1804.66 -1574 -1803H-1573H-1572C-1572 -1803.55 -1571.55 -1804 -1571 -1804V-1805Z" fill="white" fill-opacity="0.1"/>
<g id="&#234;&#180;&#128;&#235;&#166;&#172;&#236;&#158;&#144; &#236;&#158;&#144;&#235;&#163;&#140; &#236;&#151;&#133;&#235;&#161;&#156;&#235;&#147;&#156;">
<path d="M-1100 -1286C-1100 -1287.1 -1099.1 -1288 -1098 -1288H9137C9138.1 -1288 9139 -1287.1 9139 -1286V13587C9139 13588.1 9138.1 13589 9137 13589H-1098C-1099.1 13589 -1100 13588.1 -1100 13587V-1286Z" fill="#444444"/>
<path d="M-1098 -1288V-1287H9137V-1288V-1289H-1098V-1288ZM9139 -1286H9138V13587H9139H9140V-1286H9139ZM9137 13589V13588H-1098V13589V13590H9137V13589ZM-1100 13587H-1099V-1286H-1100H-1101V13587H-1100ZM-1098 13589V13588C-1098.55 13588 -1099 13587.6 -1099 13587H-1100H-1101C-1101 13588.7 -1099.66 13590 -1098 13590V13589ZM9139 13587H9138C9138 13587.6 9137.55 13588 9137 13588V13589V13590C9138.66 13590 9140 13588.7 9140 13587H9139ZM9137 -1288V-1287C9137.55 -1287 9138 -1286.55 9138 -1286H9139H9140C9140 -1287.66 9138.66 -1289 9137 -1289V-1288ZM-1098 -1288V-1289C-1099.66 -1289 -1101 -1287.66 -1101 -1286H-1100H-1099C-1099 -1286.55 -1098.55 -1287 -1098 -1287V-1288Z" fill="white" fill-opacity="0.1"/>
<g id="&#234;&#180;&#128;&#235;&#166;&#172;&#236;&#158;&#144; &#236;&#158;&#144;&#235;&#163;&#140; &#236;&#151;&#133;&#235;&#161;&#156;&#235;&#147;&#156;_&#235;&#139;&#164;&#235;&#165;&#184; &#237;&#152;&#149;&#236;&#139;&#157; &#237;&#140;&#140;&#236;&#157;&#188; &#236;&#151;&#133;&#235;&#161;&#156;&#235;&#147;&#156;&#235;&#143;&#132; &#234;&#176;&#128;&#235;&#138;&#165;">
<rect width="1920" height="1149" transform="translate(-681 -481)" fill="white"/>
<g id="Frame 1321316069">
<g id="Frame 1321316068">
<g id="Frame 1321316065">
<g id="Frame 1321316063">
<g id="Frame 1321316062">
<g id="Upload Field">
<rect x="-353.5" y="-164.5" width="763" height="482" rx="10.5" fill="#F9FAFB"/>
<rect x="-353.5" y="-164.5" width="763" height="482" rx="10.5" stroke="#D1D5DB" stroke-dasharray="4 4"/>
<g id="icon-upload">
<path id="Vector" fill-rule="evenodd" clip-rule="evenodd" d="M29.1667 2.33301C29.8109 2.33301 30.3333 2.85535 30.3333 3.49967V13.9997C30.3333 17.8657 33.4672 20.9997 37.3333 20.9997H47.8333C48.4776 20.9997 49 21.522 49 22.1663V46.6663C49 50.5324 45.8661 53.6663 42 53.6663H14C10.134 53.6663 7 50.5324 7 46.6663V9.33301C7 5.46702 10.134 2.33301 14 2.33301H29.1667ZM29.6499 26.3498C28.7387 25.4386 27.2613 25.4386 26.3501 26.3498L19.3501 33.3498C18.4389 34.2609 18.4389 35.7384 19.3501 36.6496C20.2613 37.5607 21.7387 37.5607 22.6499 36.6496L25.6667 33.6328V41.9997C25.6667 43.2884 26.7113 44.333 28 44.333C29.2887 44.333 30.3333 43.2884 30.3333 41.9997V33.6328L33.3501 36.6496C34.2613 37.5607 35.7387 37.5607 36.6499 36.6496C37.5611 35.7384 37.5611 34.2609 36.6499 33.3498L29.6499 26.3498ZM35 2.73334C35 2.51225 35.1792 2.33301 35.4004 2.33301C36.638 2.33301 37.825 2.82466 38.7002 3.69985L47.6331 12.6328C48.5084 13.508 49 14.695 49 15.9327C49 16.1538 48.8208 16.333 48.5996 16.333H37.3333C36.0446 16.333 35 15.2883 35 13.9997V2.73334Z" fill="#4A83FF"/>
</g>
</g>
</g>
</g>
</g>
</g>
</g>
</g>
</g>
</g>
</svg>
