<svg width="28" height="29" viewBox="0 0 28 29" fill="none" xmlns="http://www.w3.org/2000/svg">
<rect y="0.5" width="28" height="28" rx="4" fill="#E4ECFF"/>
<path fill-rule="evenodd" clip-rule="evenodd" d="M11.0286 5C9.91116 5 9 5.91116 9 7.02865V20.2825C9 21.3999 9.91116 22.3111 11.0286 22.3111H20.969C22.0865 22.3111 22.9977 21.3999 22.9977 20.2825V10.342C22.9977 9.7132 22.7477 9.10977 22.3031 8.66517L19.3325 5.69457C18.8879 5.24997 18.2845 5 17.6558 5H11.0286Z" fill="#97B8FF"/>
<path fill-rule="evenodd" clip-rule="evenodd" d="M12.6853 16.5967C12.6365 16.5967 12.5881 16.6063 12.543 16.625C12.4979 16.6437 12.4569 16.6711 12.4223 16.7056C12.3878 16.7401 12.3604 16.7811 12.3417 16.8263C12.323 16.8714 12.3134 16.9198 12.3134 16.9686C12.3134 17.0174 12.323 17.0658 12.3417 17.1109C12.3604 17.1561 12.3878 17.1971 12.4223 17.2316C12.4569 17.2661 12.4979 17.2935 12.543 17.3122C12.5881 17.3309 12.6365 17.3405 12.6853 17.3405H19.3122C19.361 17.3405 19.4094 17.3309 19.4545 17.3122C19.4997 17.2935 19.5407 17.2661 19.5752 17.2316C19.6098 17.1971 19.6372 17.1561 19.6558 17.1109C19.6745 17.0658 19.6842 17.0174 19.6842 16.9686C19.6842 16.9198 19.6745 16.8714 19.6558 16.8263C19.6372 16.7811 19.6098 16.7401 19.5752 16.7056C19.5407 16.6711 19.4997 16.6437 19.4545 16.625C19.4094 16.6063 19.361 16.5967 19.3122 16.5967H12.6853Z" fill="#C7D9FF"/>
<path fill-rule="evenodd" clip-rule="evenodd" d="M12.6853 13.2832C12.5866 13.2832 12.492 13.3224 12.4223 13.3921C12.3525 13.4619 12.3134 13.5565 12.3134 13.6551C12.3134 13.7538 12.3525 13.8484 12.4223 13.9181C12.492 13.9879 12.5866 14.027 12.6853 14.027H19.3122C19.4108 14.027 19.5054 13.9879 19.5752 13.9181C19.6449 13.8484 19.6841 13.7538 19.6841 13.6551C19.6841 13.5565 19.6449 13.4619 19.5752 13.3921C19.5054 13.3224 19.4108 13.2832 19.3122 13.2832H12.6853Z" fill="#C7D9FF"/>
<path fill-rule="evenodd" clip-rule="evenodd" d="M12.6853 9.96973C12.6364 9.96973 12.5881 9.97934 12.5429 9.99803C12.4978 10.0167 12.4568 10.0441 12.4223 10.0787C12.3877 10.1132 12.3604 10.1542 12.3417 10.1993C12.323 10.2444 12.3134 10.2928 12.3134 10.3416C12.3134 10.3905 12.323 10.4389 12.3417 10.484C12.3604 10.5291 12.3877 10.5701 12.4223 10.6046C12.4568 10.6392 12.4978 10.6666 12.5429 10.6853C12.5881 10.7039 12.6364 10.7136 12.6853 10.7136L15.9987 10.7135C16.0974 10.7135 16.1919 10.6743 16.2617 10.6046C16.3314 10.5349 16.3706 10.4403 16.3706 10.3416C16.3706 10.2928 16.361 10.2444 16.3423 10.1993C16.3236 10.1542 16.2963 10.1132 16.2617 10.0787C16.2272 10.0441 16.1862 10.0167 16.1411 9.99803C16.0959 9.97934 16.0476 9.96972 15.9987 9.96973L12.6853 9.96973Z" fill="#C7D9FF"/>
<path fill-rule="evenodd" clip-rule="evenodd" d="M7.02865 7C5.91116 7 5 7.91116 5 9.02865V22.2825C5 23.3999 5.91116 24.3111 7.02865 24.3111H16.969C18.0865 24.3111 18.9977 23.3999 18.9977 22.2825V12.342C18.9977 11.7132 18.7477 11.1098 18.3031 10.6652L15.3325 7.69457C14.8879 7.24997 14.2845 7 13.6558 7H7.02865Z" fill="#4A83FF"/>
<path fill-rule="evenodd" clip-rule="evenodd" d="M8.68522 18.5977C8.63637 18.5976 8.588 18.6073 8.54287 18.6259C8.49774 18.6446 8.45673 18.672 8.42219 18.7066C8.38765 18.7411 8.36024 18.7821 8.34155 18.8272C8.32285 18.8724 8.31323 18.9207 8.31323 18.9696C8.31323 19.0184 8.32285 19.0668 8.34155 19.1119C8.36024 19.157 8.38765 19.198 8.42219 19.2326C8.45673 19.2671 8.49774 19.2945 8.54287 19.3132C8.588 19.3319 8.63637 19.3415 8.68522 19.3415H15.3121C15.3609 19.3415 15.4093 19.3319 15.4544 19.3132C15.4995 19.2945 15.5405 19.2671 15.5751 19.2326C15.6096 19.198 15.637 19.157 15.6557 19.1119C15.6744 19.0668 15.684 19.0184 15.684 18.9696C15.684 18.9207 15.6744 18.8724 15.6557 18.8272C15.637 18.7821 15.6096 18.7411 15.5751 18.7066C15.5405 18.672 15.4995 18.6446 15.4544 18.6259C15.4093 18.6073 15.3609 18.5976 15.3121 18.5977H8.68522Z" fill="#C7D9FF"/>
<path fill-rule="evenodd" clip-rule="evenodd" d="M8.68515 15.2842C8.58651 15.2842 8.49191 15.3234 8.42217 15.3931C8.35242 15.4629 8.31323 15.5575 8.31323 15.6561C8.31323 15.7547 8.35242 15.8493 8.42217 15.9191C8.49191 15.9888 8.58651 16.028 8.68515 16.028H15.3121C15.4107 16.028 15.5053 15.9888 15.575 15.9191C15.6448 15.8493 15.684 15.7547 15.684 15.6561C15.684 15.5575 15.6448 15.4629 15.575 15.3931C15.5053 15.3234 15.4107 15.2842 15.3121 15.2842H8.68515Z" fill="#C7D9FF"/>
<path fill-rule="evenodd" clip-rule="evenodd" d="M8.68515 11.9707C8.63631 11.9707 8.58795 11.9803 8.54282 11.999C8.4977 12.0177 8.4567 12.0451 8.42216 12.0796C8.38762 12.1142 8.36023 12.1552 8.34154 12.2003C8.32285 12.2454 8.31323 12.2938 8.31323 12.3426C8.31323 12.3915 8.32285 12.4398 8.34154 12.485C8.36023 12.5301 8.38762 12.5711 8.42216 12.6056C8.4567 12.6402 8.4977 12.6675 8.54282 12.6862C8.58795 12.7049 8.63631 12.7145 8.68515 12.7145L11.9986 12.7145C12.0972 12.7145 12.1918 12.6753 12.2616 12.6056C12.3313 12.5358 12.3705 12.4413 12.3705 12.3426C12.3705 12.2938 12.3609 12.2454 12.3422 12.2003C12.3235 12.1552 12.2961 12.1142 12.2616 12.0796C12.2271 12.0451 12.1861 12.0177 12.1409 11.999C12.0958 11.9803 12.0474 11.9707 11.9986 11.9707L8.68515 11.9707Z" fill="#C7D9FF"/>
</svg>
