<svg width="16" height="16" viewBox="0 0 16 16" fill="none" xmlns="http://www.w3.org/2000/svg">
<path fill-rule="evenodd" clip-rule="evenodd" d="M10.4511 6.44251C10.4511 6.86488 10.3437 7.2337 10.1296 7.54866C9.953 7.81335 9.65706 8.1002 9.24094 8.4091C9.00144 8.57307 8.84372 8.72735 8.76825 8.87232C8.67325 9.04882 8.62638 9.31335 8.62638 9.66635H7.29306C7.29306 9.13082 7.35006 8.7401 7.4635 8.49435C7.59569 8.19801 7.88247 7.8986 8.32353 7.59613C8.53178 7.43848 8.683 7.27791 8.77756 7.1141C8.89084 6.93123 8.94784 6.72338 8.94784 6.49016C8.94784 6.11832 8.83725 5.84123 8.61678 5.65816C8.44066 5.52604 8.22609 5.45988 7.974 5.45988C7.56437 5.45988 7.26806 5.59548 7.08537 5.86641C6.953 6.06798 6.88662 6.32638 6.88662 6.64141V6.65091H5.46909C5.46909 5.82523 5.73034 5.20148 6.25316 4.7791C6.69441 4.42651 7.23984 4.24973 7.88878 4.24973C8.45628 4.24973 8.95416 4.36013 9.38247 4.5806C10.0951 4.94632 10.4511 5.56723 10.4511 6.44251ZM14.6667 7.9997C14.6667 11.6816 11.6819 14.6664 8 14.6664C4.31813 14.6664 1.33334 11.6816 1.33334 7.99966C1.33334 4.31776 4.31813 1.33301 8 1.33301C11.6819 1.33301 14.6667 4.31776 14.6667 7.99966M13.3333 7.99966C13.3333 5.05882 10.9408 2.66632 8 2.66632C5.05919 2.66632 2.66669 5.05885 2.66669 7.99966C2.66669 10.9405 5.05919 13.333 8 13.333C10.9408 13.333 13.3333 10.9405 13.3333 7.99966ZM7.99997 10.1663C7.53972 10.1663 7.16663 10.5394 7.16663 10.9996C7.16663 11.4599 7.53975 11.833 7.99997 11.833C8.46019 11.833 8.83331 11.4599 8.83331 10.9996C8.83331 10.5394 8.46019 10.1663 7.99997 10.1663Z" fill="#6B7280"/>
</svg>
